<?xml version="1.0" encoding="UTF-8"?>
<svg version="1.1" xmlns="http://www.w3.org/2000/svg" width="500" height="500">
<path d="M0 0 C165 0 330 0 500 0 C500 165 500 330 500 500 C335 500 170 500 0 500 C0 335 0 170 0 0 Z " fill="#FEFEFE" transform="translate(0,0)"/>
<path d="M0 0 C-0.51348357 4.49298123 -2.13352105 6.57615015 -5 10 C-5.78580149 11.26163284 -6.55551463 12.53336961 -7.3125 13.8125 C-9.57737265 17.51363336 -12.21380124 20.59727258 -15.1171875 23.80859375 C-17.96533035 27.1235484 -20.44429461 30.68507719 -22.984375 34.23828125 C-24.81655599 36.74865327 -26.71842533 39.15907063 -28.6875 41.5625 C-35.78062961 50.3278802 -42.23436341 59.62286899 -48.70703125 68.8515625 C-52.55943702 74.33032358 -56.47189399 79.62637815 -60.875 84.6875 C-67.51230465 92.52494622 -72.77338128 101.18168109 -78 110 C-78.4321582 110.70737305 -78.86431641 111.41474609 -79.30957031 112.14355469 C-85.34485181 122.13844104 -88.10464603 131.27761109 -86 143 C-81.18192288 151.72630277 -73.33505309 156.19292329 -64 159 C-53.47899182 161.19724456 -42.99264472 161.31203831 -32.29345703 161.26074219 C-29.60817329 161.24993226 -26.92354599 161.26074583 -24.23828125 161.2734375 C-22.50520688 161.27211712 -20.77213291 161.26955726 -19.0390625 161.265625 C-18.24932037 161.26967346 -17.45957825 161.27372192 -16.64590454 161.27789307 C-11.46125904 161.23460297 -6.96049958 160.55450577 -2 159 C-0.63315847 157.16221781 -0.63315847 157.16221781 0 155 C1.65625 153.078125 1.65625 153.078125 3.5 151.25 C4.1084375 150.63640625 4.716875 150.0228125 5.34375 149.390625 C7 148 7 148 9 148 C8.835 148.639375 8.67 149.27875 8.5 149.9375 C7.96073333 151.80826821 7.96073333 151.80826821 8 153 C8.51796143 152.47156494 9.03592285 151.94312988 9.56958008 151.39868164 C27.23089741 133.42768856 27.23089741 133.42768856 35.46484375 127.0390625 C38.46083581 124.62934315 41.211346 122.01809727 44 119.375 C48.49230695 115.15495408 53.15745408 111.75232628 58.45703125 108.60546875 C60.85535012 107.09132273 62.77589354 105.45723098 64.875 103.5625 C70.34565447 99.06910793 77.15663908 97.14890299 83.81396484 95.01586914 C89.04206292 93.40427008 89.04206292 93.40427008 92.44140625 89.44140625 C92.71791016 87.73791016 92.71791016 87.73791016 93 86 C93.52376353 84.30487921 94.0515243 82.61099122 94.58203125 80.91796875 C96.25094392 74.72020055 96.550501 68.7044821 96.6875 62.3125 C96.72166016 61.21744141 96.75582031 60.12238281 96.79101562 58.99414062 C96.87246661 56.32952977 96.94194221 53.66520538 97 51 C82.50215269 51.08844381 69.55232914 51.55986788 56 57 C54.59427734 57.53367187 54.59427734 57.53367187 53.16015625 58.078125 C50.75474339 59.01212198 48.37968389 60.00272191 46 61 C44.75669922 61.47566406 44.75669922 61.47566406 43.48828125 61.9609375 C36.55054534 64.61703854 30.18305674 67.87796217 24 72 C23.01 72 22.02 72 21 72 C20.48922085 65.61526067 20.88541259 62.16960982 25 57 C26.10871165 55.37809756 27.212444 53.75278556 28.3125 52.125 C37.10034383 39.66934848 51.30106132 23.32591251 66.625 19.3125 C77.04440464 18.34774031 86.44332901 18.73415323 95.875 23.5 C96.92228271 24.02315796 96.92228271 24.02315796 97.99072266 24.55688477 C103.32291194 27.35421044 107.38111413 30.69341609 111.3984375 35.21484375 C112.89135649 37.09864357 112.89135649 37.09864357 115 38 C115.98733517 42.93667583 116.66430829 46.51911788 114 51 C113.175 51.680625 112.35 52.36125 111.5 53.0625 C108.2849328 56.84020396 108.15191138 59.69717891 107.53515625 64.5234375 C106.73395317 69.72833341 105.24847314 74.69148096 103.8046875 79.75 C102.83977408 83.08910318 102.83977408 83.08910318 103 87 C103.72445313 86.855625 104.44890625 86.71125 105.1953125 86.5625 C110.18491623 85.60449608 114.89267738 84.72392851 120 85 C118.375491 89.2237234 115.90282228 92.70818726 112 95 C107.01742337 96.10607984 102.08421514 96.62482891 97 97 C96.65195312 98.20527344 96.30390625 99.41054688 95.9453125 100.65234375 C93.71025979 107.34312435 90.25254642 113.3952888 86.875 119.5625 C86.19052446 120.82270301 85.50644547 122.08312149 84.82275391 123.34375 C83.4843741 125.80755022 82.14108201 128.26856338 80.79296875 130.72705078 C79.34261595 133.37457661 77.90284588 136.02725706 76.46875 138.68359375 C68.05364026 154.12467045 58.43830598 168.88749466 47.25683594 182.46679688 C46.03296206 183.95978987 44.83250927 185.471886 43.6328125 186.984375 C37.08058388 195.19166483 29.91816067 202.41248665 21.96875 209.2578125 C16.51565788 214.08336624 11.56842255 219.33536387 6.93359375 224.9453125 C4.17019619 227.88177132 1.09378879 230.41978979 -2 233 C1.74240351 233.96946878 5.49496314 234.89329827 9.25 235.8125 C10.25546875 236.07353516 11.2609375 236.33457031 12.296875 236.60351562 C34.17512447 241.87773648 57.00007466 242.60059172 79.40527344 242.66577148 C82.07920881 242.68040742 84.74716539 242.71010739 87.41992188 242.76831055 C108.68028158 243.4629715 108.68028158 243.4629715 127 234 C128.30182067 233.19089228 129.61143461 232.39372813 130.9375 231.625 C134.71896954 228.84422469 137.08511335 224.90066671 139.6171875 221.01171875 C140.07351563 220.34785156 140.52984375 219.68398438 141 219 C141.33 219 141.66 219 142 219 C142.42697391 224.35242291 142.42697391 224.35242291 140.59375 227.1328125 C125.26633987 241.71672886 109.40771679 254.19189274 87.609375 254.1328125 C86.44239075 254.13499535 86.44239075 254.13499535 85.25183105 254.13722229 C82.75116989 254.13944935 80.25064737 254.13322857 77.75 254.125 C76.89386108 254.12311676 76.03772217 254.12123352 75.15563965 254.11929321 C50.16910213 254.05462341 50.16910213 254.05462341 38 253 C37.03868164 252.91911133 36.07736328 252.83822266 35.08691406 252.75488281 C21.21676746 251.52610079 7.85598297 249.36865691 -5.63720703 245.89379883 C-6.66056152 245.63493896 -7.68391602 245.3760791 -8.73828125 245.109375 C-9.63587158 244.87186523 -10.53346191 244.63435547 -11.45825195 244.38964844 C-15.3023569 243.80034948 -18.16895122 244.67891297 -21.75 246.0625 C-25.91248869 247.26321789 -29.71617826 247.91854242 -34 247 C-37.30258173 243.69741827 -37.94982593 241.77769804 -38.25 237.125 C-38.1675 236.09375 -38.085 235.0625 -38 234 C-38.66990967 233.89002686 -39.33981934 233.78005371 -40.0300293 233.66674805 C-43.64746425 232.85464654 -47.05495907 231.62899362 -50.51953125 230.33203125 C-51.61077301 229.92497955 -51.61077301 229.92497955 -52.72406006 229.50970459 C-55.0904238 228.61967246 -57.45223456 227.71857628 -59.8125 226.8125 C-60.61734833 226.50375946 -61.42219666 226.19501892 -62.25143433 225.87692261 C-76.76374031 220.26085714 -89.90317633 213.44354326 -103 205 C-103.94552734 204.40727295 -104.89105469 203.8145459 -105.86523438 203.20385742 C-110.88275501 200.05433699 -115.71968563 196.85059589 -120.375 193.1875 C-121.47646164 192.32669384 -122.57802719 191.46602063 -123.6796875 190.60546875 C-124.22850586 190.17411621 -124.77732422 189.74276367 -125.34277344 189.29833984 C-127.51151246 187.59925998 -129.69511547 185.9200378 -131.88085938 184.24291992 C-132.95896362 183.41532211 -134.03579227 182.58605988 -135.11132812 181.75512695 C-137.87581616 179.62033714 -140.65403311 177.50846734 -143.4609375 175.4296875 C-148.88993431 171.38414459 -153.96606808 167.42806533 -158.21777344 162.09716797 C-160.09276486 159.89084245 -162.10600017 157.95971896 -164.2109375 155.97265625 C-169.25323084 150.9635897 -173.04355448 145.46098411 -176.875 139.5 C-177.56408447 138.44554687 -178.25316895 137.39109375 -178.96313477 136.3046875 C-180.34452339 134.1879424 -181.72134609 132.06820954 -183.09326172 129.9453125 C-184.76729262 127.3594599 -186.4579612 124.78610347 -188.16015625 122.21875 C-192.73323663 115.29371018 -197.09398777 108.28280893 -201.1875 101.0625 C-201.57478271 100.38123047 -201.96206543 99.69996094 -202.36108398 98.99804688 C-205 94.25299669 -205 94.25299669 -205 92 C-205.62753174 92.40202637 -206.25506348 92.80405273 -206.90161133 93.21826172 C-224.12650158 104.21621059 -241.15012618 114.98096982 -260.51171875 121.7734375 C-263.34659082 122.77024582 -266.10541138 123.83932061 -268.875 125 C-284.11281567 131.11046635 -300.36446414 136.89118942 -317 136 C-316.59007812 135.52949219 -316.18015625 135.05898438 -315.7578125 134.57421875 C-315.21898437 133.95160156 -314.68015625 133.32898438 -314.125 132.6875 C-313.59132813 132.07261719 -313.05765625 131.45773437 -312.5078125 130.82421875 C-310.8359553 128.86501788 -310.8359553 128.86501788 -309 126 C-306.88720703 125.38745117 -306.88720703 125.38745117 -304.2578125 125.04296875 C-302.79661987 124.83329468 -302.79661987 124.83329468 -301.3059082 124.61938477 C-300.2562085 124.47686279 -299.20650879 124.33434082 -298.125 124.1875 C-282.04755091 121.75969325 -267.02986837 117.18050662 -252 111 C-251.04480469 110.62359375 -250.08960938 110.2471875 -249.10546875 109.859375 C-235.16148647 104.25938212 -221.51044501 97.34029667 -209 89 C-209.90871576 84.59197881 -212.24983055 81.43152359 -214.8125 77.8125 C-215.30169922 77.11415039 -215.79089844 76.41580078 -216.29492188 75.69628906 C-217.33320485 74.21538354 -218.3737923 72.73609143 -219.41650391 71.25830078 C-220.96665897 69.04754927 -222.49196025 66.82157014 -224.01171875 64.58984375 C-230.09517038 55.71615541 -236.48548748 47.7075016 -244 40 C-244.56589844 39.37222656 -245.13179688 38.74445313 -245.71484375 38.09765625 C-256.97003386 25.926013 -268.70499147 19.39767745 -285.2421875 18.703125 C-287.55706028 18.64595349 -289.87221233 18.59920953 -292.1875 18.5625 C-293.29262939 18.53969971 -294.39775879 18.51689941 -295.53637695 18.4934082 C-303.18873204 18.51807656 -310.74781295 19.36899088 -316.78320312 24.52270508 C-327.3240173 35.611451 -329.63727748 47.22754956 -329.40234375 61.84765625 C-328.64541964 79.26229818 -319.25412649 97.02258539 -308 110 C-309.3904499 113.10442031 -311.01571598 115.3656443 -313.375 117.8125 C-314.25285156 118.75029297 -314.25285156 118.75029297 -315.1484375 119.70703125 C-317 121 -317 121 -318.95703125 121.08203125 C-322.05996257 119.43860491 -323.52809048 116.78798705 -325.3125 113.875 C-325.70203857 113.25189941 -326.09157715 112.62879883 -326.49291992 111.98681641 C-334.96071835 98.12475521 -342.02843947 82.63836948 -342.25 66.1875 C-342.27578125 65.04667969 -342.3015625 63.90585938 -342.328125 62.73046875 C-341.52258213 53.5722135 -337.28205294 46.60750819 -332.375 39 C-331.50681641 37.60007812 -331.50681641 37.60007812 -330.62109375 36.171875 C-322.60594488 23.61422382 -311.05355949 11.93786898 -296.44140625 7.61328125 C-289.32920398 6.34583998 -282.18834351 6.66104317 -275 7 C-273.52080078 7.04833984 -273.52080078 7.04833984 -272.01171875 7.09765625 C-255.77118462 8.10783301 -244.32925517 18.27865609 -233 29 C-232.23816406 29.70898438 -231.47632813 30.41796875 -230.69140625 31.1484375 C-218.52843243 42.82657874 -209.87521441 57.53258473 -200.66650391 71.53320312 C-199.59067907 73.12566345 -198.46484397 74.68594922 -197.28271484 76.20117188 C-196 78 -196 78 -196 80 C-190.45736417 77.20110678 -187.01704096 74.27563527 -183.25 69.375 C-182.74194824 68.72402344 -182.23389648 68.07304687 -181.71044922 67.40234375 C-171.83463198 54.46688768 -163.0281814 40.29704969 -159.1015625 24.3515625 C-157.91211857 20.73261609 -156.69607634 19.1308297 -153.9375 16.5625 C-153.22464844 15.88316406 -152.51179687 15.20382813 -151.77734375 14.50390625 C-150 13 -150 13 -149 13 C-147.12530388 29.12238663 -161.58854931 46.93810307 -170.9375 58.84765625 C-173.51809718 61.9954024 -176.23239774 65.01634313 -179 68 C-179.52964355 68.57637207 -180.05928711 69.15274414 -180.60498047 69.74658203 C-182.76674123 72.09895644 -184.928189 74.45095743 -187.11767578 76.77758789 C-189.30564786 79.10751637 -191.2215454 81.3323181 -193 84 C-185.34915746 98.70576519 -176.33500569 112.38790508 -167 126.05615234 C-165.39083383 128.42472237 -163.81028671 130.80626197 -162.25 133.20703125 C-151.82707866 148.96373766 -137.26334121 161.49685009 -122.0703125 172.48974609 C-119.99408818 174.00431256 -117.94729783 175.55170371 -115.90625 177.11328125 C-107.1758724 183.78678568 -98.30584215 190.15192327 -89 196 C-87.89422607 196.70358643 -87.89422607 196.70358643 -86.76611328 197.42138672 C-71.64475787 206.9266864 -55.77092158 213.09967367 -39 219 C-38.70955811 218.25379395 -38.41911621 217.50758789 -38.11987305 216.73876953 C-31.0609146 199.47533028 -20.27291202 184.71943908 -8.28759766 170.61303711 C-6.92133792 169.01641023 -6.92133792 169.01641023 -6 167 C-7.21236328 167.52400391 -7.21236328 167.52400391 -8.44921875 168.05859375 C-9.51785156 168.51363281 -10.58648437 168.96867188 -11.6875 169.4375 C-13.27111328 170.11619141 -13.27111328 170.11619141 -14.88671875 170.80859375 C-22.72002413 173.80628276 -30.92505801 173.24354924 -39.1875 173.25 C-40.33874359 173.25101212 -40.33874359 173.25101212 -41.51324463 173.25204468 C-60.53521555 173.22539768 -79.53054191 172.58622039 -94.2578125 158.96484375 C-99.00368273 153.61243854 -98.78450076 147.48000619 -98.5625 140.64453125 C-97.9144283 132.83688747 -93.99937493 126.56120118 -90 120 C-89.58830566 119.30422852 -89.17661133 118.60845703 -88.75244141 117.89160156 C-83.99485441 109.86122104 -78.96253122 102.19615837 -73 95 C-67.1733168 87.87304644 -61.74233211 80.52831977 -56.42871094 73.01708984 C-42.70247754 53.63805015 -42.70247754 53.63805015 -35.0546875 44.51953125 C-32.15218174 40.96037495 -29.51128326 37.22885115 -26.84375 33.4921875 C-25.25235146 31.34110219 -23.60387335 29.35830621 -21.8125 27.375 C-18.99955 24.20180845 -17.04274409 20.76149872 -15.078125 17.015625 C-14 15 -14 15 -12 12 C-13.79216433 13.04081021 -15.5836982 14.08270601 -17.375 15.125 C-18.37273437 15.70507812 -19.37046875 16.28515625 -20.3984375 16.8828125 C-22.37239533 18.03492907 -24.33403449 19.20297346 -26.28735352 20.38989258 C-31.29447719 23.43128204 -36.35392381 26.29623152 -41.53369141 29.03222656 C-54.54770289 35.92354672 -66.77636097 43.80735516 -79 52 C-80.35852131 52.89972785 -81.71779422 53.79832281 -83.078125 54.6953125 C-87.75883822 57.5627477 -87.75883822 57.5627477 -92 61 C-92.07615555 62.73888501 -92.14696361 64.47819918 -92.18823242 66.21826172 C-92.42566683 74.50875786 -93.81343596 80.71311556 -98 88 C-98.68449219 89.27617187 -98.68449219 89.27617187 -99.3828125 90.578125 C-102.38925939 95.93387192 -105.9116264 100.31769392 -110.0859375 104.8046875 C-111.87433866 106.85587413 -113.22617138 108.86184015 -114.625 111.1875 C-121.86392189 122.36957446 -134.45050165 135.15179456 -147.58984375 138.69921875 C-149.8125 139 -149.8125 139 -153 139 C-154.97933883 132.33783515 -154.94461735 125.13391558 -151.96386719 118.79736328 C-146.54579506 109.2529039 -139.54793644 101.01378101 -131.94921875 93.16015625 C-128.79313785 89.86028559 -126.02184443 86.31125484 -123.25 82.6875 C-112.73825369 69.02110715 -112.73825369 69.02110715 -106 66 C-105.29349633 53.88477048 -106.91803436 40.89933539 -112.42578125 29.98046875 C-113 28 -113 28 -112.3203125 25.97265625 C-110.89156101 23.83798316 -109.37305978 22.07224081 -107.5625 20.25 C-106.66724609 19.32960937 -106.66724609 19.32960937 -105.75390625 18.390625 C-104 17 -104 17 -101 17 C-95.5580003 30.48037329 -93.51087174 43.40767352 -94 58 C-92.26972464 56.75153512 -90.54083043 55.50115598 -88.8125 54.25 C-87.84957031 53.55390625 -86.88664063 52.8578125 -85.89453125 52.140625 C-84.07586436 50.79564598 -82.28195893 49.41581177 -80.52734375 47.98828125 C-77.70603081 45.76873212 -74.78195561 43.85941499 -71.75 41.9375 C-70.50490785 41.146306 -69.26013027 40.3546168 -68.015625 39.5625 C-67.36271484 39.14742187 -66.70980469 38.73234375 -66.03710938 38.3046875 C-63.9479168 36.96664278 -61.87108551 35.61114091 -59.796875 34.25 C-49.18188417 27.29196974 -38.52932434 20.61378658 -27.0625 15.125 C-19.57682415 11.47295868 -12.8428837 6.71455185 -6 2 C-3 0 -3 0 0 0 Z " fill="#080808" transform="translate(350,168)"/>
<path d="M0 0 C-2.28950534 8.0132687 -5.93621425 15.2043259 -9.74755859 22.57324219 C-11.09901357 25.19185085 -12.43407902 27.81850966 -13.76953125 30.4453125 C-20.33989137 43.28812403 -27.34849533 55.77013599 -35 68 C-35.69609375 69.11632812 -36.3921875 70.23265625 -37.109375 71.3828125 C-42.48253765 79.70899429 -48.68165015 87.38025869 -55 95 C-55.50515137 95.61681641 -56.01030273 96.23363281 -56.53076172 96.86914062 C-59.40837733 100.32191243 -62.25102439 103.17728014 -65.875 105.875 C-71.98011125 110.70716624 -77.13092157 116.28787774 -82.34130859 122.06005859 C-85.96065178 126.02573315 -89.26582161 129.41342322 -94 132 C-101.87065532 132.28109483 -108.98726535 128.22073628 -116 125 C-117.5561013 109.56001705 -114.12653295 100.01894042 -106 87 C-105.42894531 85.99710937 -104.85789062 84.99421875 -104.26953125 83.9609375 C-92.81028959 64.45960594 -75.07416487 46.62375942 -57.31640625 32.82421875 C-55.03138716 31.02471805 -52.93465524 29.1122893 -50.8125 27.125 C-37.49297212 15.17096329 -22.33063399 7.71218578 -5.78125 1.35546875 C-4.7612793 0.96331177 -4.7612793 0.96331177 -3.72070312 0.56323242 C-2 0 -2 0 0 0 Z " fill="#FDFDFD" transform="translate(439,268)"/>
<path d="M0 0 C0.69818848 0.34877197 1.39637695 0.69754395 2.11572266 1.05688477 C7.44791194 3.85421044 11.50611413 7.19341609 15.5234375 11.71484375 C17.01635649 13.59864357 17.01635649 13.59864357 19.125 14.5 C20.11233517 19.43667583 20.78930829 23.01911788 18.125 27.5 C16.8875 28.5209375 16.8875 28.5209375 15.625 29.5625 C12.4099328 33.34020396 12.27691138 36.19717891 11.66015625 41.0234375 C10.85895317 46.22833341 9.37347314 51.19148096 7.9296875 56.25 C6.96477408 59.58910318 6.96477408 59.58910318 7.125 63.5 C8.21167969 63.2834375 8.21167969 63.2834375 9.3203125 63.0625 C14.30991623 62.10449608 19.01767738 61.22392851 24.125 61.5 C22.500491 65.7237234 20.02782228 69.20818726 16.125 71.5 C11.14242337 72.60607984 6.20921514 73.12482891 1.125 73.5 C0.77695312 74.70527344 0.42890625 75.91054688 0.0703125 77.15234375 C-2.16474021 83.84312435 -5.62245358 89.8952888 -9 96.0625 C-9.68447554 97.32270301 -10.36855453 98.58312149 -11.05224609 99.84375 C-12.3906259 102.30755022 -13.73391799 104.76856338 -15.08203125 107.22705078 C-16.53238405 109.87457661 -17.97215412 112.52725706 -19.40625 115.18359375 C-27.82135974 130.62467045 -37.43669402 145.38749466 -48.61816406 158.96679688 C-49.84203794 160.45978987 -51.04249073 161.971886 -52.2421875 163.484375 C-58.79441612 171.69166483 -65.95683933 178.91248665 -73.90625 185.7578125 C-79.49768848 190.70579179 -84.53836633 196.119976 -89.33203125 201.8359375 C-90.875 203.5 -90.875 203.5 -93.875 205.5 C-93.875 202.5 -93.875 202.5 -92.58984375 200.95703125 C-92.00332031 200.41433594 -91.41679687 199.87164062 -90.8125 199.3125 C-88.2336778 196.85230362 -85.8520498 194.35610583 -83.5625 191.625 C-78.61323927 185.88430343 -72.90977371 180.86486356 -66.9375 176.2109375 C-63.32201084 173.20601299 -60.68406833 169.60127096 -57.9375 165.8125 C-57.41099854 165.09626465 -56.88449707 164.3800293 -56.34204102 163.64208984 C-54.84548492 161.60009452 -53.35969627 159.5506238 -51.875 157.5 C-51.23304688 156.62988281 -50.59109375 155.75976562 -49.9296875 154.86328125 C-32.55589311 130.81694264 -19.03804287 103.47845318 -6.875 76.5 C-22.78709442 82.58502593 -37.76961098 88.31768437 -50.875 99.5 C-52.45358499 100.6938049 -54.03638703 101.88207231 -55.625 103.0625 C-60.02769654 106.51998485 -64.1282743 110.29288661 -68.2421875 114.0859375 C-70.48385063 116.14134969 -72.75560096 118.14378082 -75.0625 120.125 C-79.20236554 123.71631192 -83.04737666 127.58075802 -86.875 131.5 C-86.875 128.5 -86.875 128.5 -85.3972168 126.64990234 C-84.71312744 125.96879395 -84.02903809 125.28768555 -83.32421875 124.5859375 C-82.56834473 123.82933838 -81.8124707 123.07273926 -81.03369141 122.29321289 C-80.21819824 121.49520264 -79.40270508 120.69719238 -78.5625 119.875 C-77.73669434 119.05829834 -76.91088867 118.24159668 -76.06005859 117.40014648 C-71.05052464 112.49213725 -65.9801081 107.88188077 -60.4453125 103.57421875 C-57.44048691 101.1493519 -54.67565446 98.52926169 -51.875 95.875 C-47.38266519 91.6549718 -42.71755407 88.25233112 -37.41796875 85.10546875 C-35.01964988 83.59132273 -33.09910646 81.95723098 -31 80.0625 C-25.52934553 75.56910793 -18.71836092 73.64890299 -12.06103516 71.51586914 C-6.83293708 69.90427008 -6.83293708 69.90427008 -3.43359375 65.94140625 C-3.24925781 64.80574219 -3.06492187 63.67007813 -2.875 62.5 C-2.35123647 60.80487921 -1.8234757 59.11099122 -1.29296875 57.41796875 C0.37594392 51.22020055 0.675501 45.2044821 0.8125 38.8125 C0.84666016 37.71744141 0.88082031 36.62238281 0.91601562 35.49414062 C0.99746661 32.82952977 1.06694221 30.16520538 1.125 27.5 C-13.37284731 27.58844381 -26.32267086 28.05986788 -39.875 33.5 C-41.28072266 34.03367187 -41.28072266 34.03367187 -42.71484375 34.578125 C-45.12025661 35.51212198 -47.49531611 36.50272191 -49.875 37.5 C-51.11830078 37.97566406 -51.11830078 37.97566406 -52.38671875 38.4609375 C-59.32445466 41.11703854 -65.69194326 44.37796217 -71.875 48.5 C-72.865 48.5 -73.855 48.5 -74.875 48.5 C-75.38577915 42.11526067 -74.98958741 38.66960982 -70.875 33.5 C-69.76628835 31.87809756 -68.662556 30.25278556 -67.5625 28.625 C-58.77465617 16.16934848 -44.57393868 -0.17408749 -29.25 -4.1875 C-18.83059536 -5.15225969 -9.43167099 -4.76584677 0 0 Z " fill="#0A0A0A" transform="translate(445.875,191.5)"/>
<path d="M0 0 C-0.51348357 4.49298123 -2.13352105 6.57615015 -5 10 C-5.78580149 11.26163284 -6.55551463 12.53336961 -7.3125 13.8125 C-9.57737265 17.51363336 -12.21380124 20.59727258 -15.1171875 23.80859375 C-17.96533035 27.1235484 -20.44429461 30.68507719 -22.984375 34.23828125 C-24.81655599 36.74865327 -26.71842533 39.15907063 -28.6875 41.5625 C-35.78062961 50.3278802 -42.23436341 59.62286899 -48.70703125 68.8515625 C-53.45140972 75.60034892 -58.38394377 82.03154392 -63.7734375 88.28125 C-66.08990872 91.01559032 -66.08990872 91.01559032 -68.15625 94.26171875 C-70.0119407 97.01773396 -70.95576467 97.88378038 -74 99 C-74.99 99.495 -74.99 99.495 -76 100 C-74.47587802 96.55484927 -72.4355742 93.98679969 -70 91.125 C-66.58108934 87.00379719 -63.34253775 82.81091864 -60.25 78.4375 C-59.84273682 77.86169189 -59.43547363 77.28588379 -59.01586914 76.69262695 C-58.147501 75.4625079 -57.27976662 74.23194127 -56.41259766 73.00097656 C-49.55514441 63.28723878 -42.69880371 53.63366981 -35.0546875 44.51953125 C-32.15218174 40.96037495 -29.51128326 37.22885115 -26.84375 33.4921875 C-25.25235146 31.34110219 -23.60387335 29.35830621 -21.8125 27.375 C-18.99955 24.20180845 -17.04274409 20.76149872 -15.078125 17.015625 C-14 15 -14 15 -12 12 C-13.79216433 13.04081021 -15.5836982 14.08270601 -17.375 15.125 C-18.37273437 15.70507812 -19.37046875 16.28515625 -20.3984375 16.8828125 C-22.37239533 18.03492907 -24.33403449 19.20297346 -26.28735352 20.38989258 C-31.29447719 23.43128204 -36.35392381 26.29623152 -41.53369141 29.03222656 C-54.54770289 35.92354672 -66.77636097 43.80735516 -79 52 C-80.35852131 52.89972785 -81.71779422 53.79832281 -83.078125 54.6953125 C-87.75883822 57.5627477 -87.75883822 57.5627477 -92 61 C-92.07615555 62.73888501 -92.14696361 64.47819918 -92.18823242 66.21826172 C-92.42566683 74.50875786 -93.81343596 80.71311556 -98 88 C-98.68449219 89.27617187 -98.68449219 89.27617187 -99.3828125 90.578125 C-102.38925939 95.93387192 -105.9116264 100.31769392 -110.0859375 104.8046875 C-111.87433866 106.85587413 -113.22617138 108.86184015 -114.625 111.1875 C-121.86392189 122.36957446 -134.45050165 135.15179456 -147.58984375 138.69921875 C-149.8125 139 -149.8125 139 -153 139 C-154.97933883 132.33783515 -154.94461735 125.13391558 -151.96386719 118.79736328 C-146.54579506 109.2529039 -139.54793644 101.01378101 -131.94921875 93.16015625 C-128.79313785 89.86028559 -126.02184443 86.31125484 -123.25 82.6875 C-112.73825369 69.02110715 -112.73825369 69.02110715 -106 66 C-105.29349633 53.88477048 -106.91803436 40.89933539 -112.42578125 29.98046875 C-113 28 -113 28 -112.3203125 25.97265625 C-110.89156101 23.83798316 -109.37305978 22.07224081 -107.5625 20.25 C-106.96566406 19.63640625 -106.36882812 19.0228125 -105.75390625 18.390625 C-104 17 -104 17 -101 17 C-95.5580003 30.48037329 -93.51087174 43.40767352 -94 58 C-92.26972464 56.75153512 -90.54083043 55.50115598 -88.8125 54.25 C-87.84957031 53.55390625 -86.88664062 52.8578125 -85.89453125 52.140625 C-84.07586436 50.79564598 -82.28195893 49.41581177 -80.52734375 47.98828125 C-77.70603081 45.76873212 -74.78195561 43.85941499 -71.75 41.9375 C-70.50490785 41.146306 -69.26013027 40.3546168 -68.015625 39.5625 C-67.36271484 39.14742187 -66.70980469 38.73234375 -66.03710938 38.3046875 C-63.9479168 36.96664278 -61.87108551 35.61114091 -59.796875 34.25 C-49.18188417 27.29196974 -38.52932434 20.61378658 -27.0625 15.125 C-19.57682415 11.47295868 -12.8428837 6.71455185 -6 2 C-3 0 -3 0 0 0 Z " fill="#0D0D0D" transform="translate(350,168)"/>
<path d="M0 0 C1.64453125 1.00390625 1.64453125 1.00390625 3 3 C3.53440451 5.77490256 3.92108203 8.38888924 4.1875 11.1875 C4.3102832 12.31188477 4.3102832 12.31188477 4.43554688 13.45898438 C4.63540784 15.30475918 4.81926538 17.15225433 5 19 C6.10408203 18.29423828 6.10408203 18.29423828 7.23046875 17.57421875 C8.20628906 16.95160156 9.18210938 16.32898438 10.1875 15.6875 C11.15042969 15.07261719 12.11335938 14.45773438 13.10546875 13.82421875 C14.96520993 12.65215515 16.84192364 11.50637573 18.73828125 10.39453125 C21.08812106 9.06573041 21.08812106 9.06573041 23 7 C25.1640625 6.8046875 25.1640625 6.8046875 27.625 6.875 C28.85089844 6.90207031 28.85089844 6.90207031 30.1015625 6.9296875 C31.04128906 6.96449219 31.04128906 6.96449219 32 7 C32.495 9.475 32.495 9.475 33 12 C33.66 12 34.32 12 35 12 C36.03322465 24.55176614 36.03322465 24.55176614 32.5 29.25 C31.35409659 30.51906126 30.18602812 31.76835541 29 33 C28.39671875 33.75023437 27.7934375 34.50046875 27.171875 35.2734375 C19.88018916 44.19537831 10.26680959 48.48441001 0.1015625 53.38671875 C-2.52916392 54.75509408 -4.69890293 56.15395134 -7 58 C-10.32294943 60.21529962 -13.00083618 61.58982935 -17 62 C-18.34083433 61.69825144 -19.6762133 61.36942885 -21 61 C-21.20496094 60.21753906 -21.40992188 59.43507812 -21.62109375 58.62890625 C-21.89050781 57.61699219 -22.15992188 56.60507813 -22.4375 55.5625 C-22.70433594 54.55316406 -22.97117188 53.54382813 -23.24609375 52.50390625 C-23.75978077 50.08247999 -23.75978077 50.08247999 -25 49 C-28.73846154 24.4 -28.73846154 24.4 -23.3125 16.5625 C-22.549375 15.716875 -21.78625 14.87125 -21 14 C-20.01223211 12.6730261 -19.03369655 11.33914988 -18.0625 10 C-12.75872164 2.91490214 -9.23422394 -0.65958742 0 0 Z M-16 11 C-21.64034986 19.4605248 -19.64358153 34.29504237 -18 44 C-16.78016984 51.59817319 -16.78016984 51.59817319 -12 57 C-11.34644531 56.59652344 -10.69289062 56.19304687 -10.01953125 55.77734375 C-6.30079798 53.58843866 -2.5046116 51.57344973 1.3125 49.5625 C2.03373047 49.18029297 2.75496094 48.79808594 3.49804688 48.40429688 C7.04118264 46.53263144 10.59521788 44.70489249 14.19921875 42.953125 C19.71765536 40.19015914 24.45576469 37.16040661 28 32 C29.18351669 25.63531023 29.50772816 18.70724623 26 13 C20.14008896 12.37049929 16.46285025 14.37273507 11.5625 17.25 C10.80477295 17.69239014 10.0470459 18.13478027 9.26635742 18.59057617 C3.23426835 22.35744208 0.43943501 25.91430509 -2.640625 32.34765625 C-4.50264227 35.98073018 -6.66906923 37.72521801 -10 40 C-8.97595258 36.18309599 -8.01270843 34.01452392 -5.375 31 C-1.45611955 25.83262667 -2.32959216 19.14658134 -3 13 C-3.91352788 9.18789376 -3.91352788 9.18789376 -6 6 C-11.05942737 5.1567621 -12.80705553 7.28928076 -16 11 Z " fill="#1A1A1A" transform="translate(239,127)"/>
<path d="M0 0 C0.75492702 19.4393707 0.75492702 19.4393707 -4 27 C-4.43570313 27.804375 -4.87140625 28.60875 -5.3203125 29.4375 C-8.36770105 34.89948604 -11.93801442 39.46458529 -16.1953125 44.03515625 C-18.12183798 46.05778686 -18.12183798 46.05778686 -20 48.75 C-23.69542633 52.90735462 -28.06185758 55.50665466 -33.4375 56.875 C-34.283125 56.91625 -35.12875 56.9575 -36 57 C-38.27211097 54.72788903 -37.67139227 49.795825 -37.72558594 46.69775391 C-37.4294008 37.68385286 -32.55339486 31.72832212 -27 25 C-26.48163574 24.36723145 -25.96327148 23.73446289 -25.42919922 23.08251953 C-22.47539984 19.50982886 -19.45108713 16.00909018 -16.36010742 12.5546875 C-14.99611236 10.99555618 -13.70193077 9.39340833 -12.40625 7.77734375 C-10.27900093 5.32202867 -8.57647584 3.76093154 -5.8125 2.125 C-5.13832031 1.71507812 -4.46414062 1.30515625 -3.76953125 0.8828125 C-2 0 -2 0 0 0 Z " fill="#FBFBFB" transform="translate(245,239)"/>
<path d="M0 0 C8.43679472 4.33599178 8.43679472 4.33599178 9.87817383 7.21875 C8.75540039 7.40050781 7.63262695 7.58226562 6.47583008 7.76953125 C4.96404796 8.02305993 3.45233273 8.27698771 1.94067383 8.53125 C1.20526367 8.64919922 0.46985352 8.76714844 -0.2878418 8.88867188 C-5.78468596 9.82481564 -10.87915358 11.33851416 -16.12182617 13.21875 C-16.88454834 13.48292725 -17.64727051 13.74710449 -18.43310547 14.01928711 C-27.29381315 17.10058825 -35.81412362 20.24842141 -43.94213867 24.99609375 C-46.56654301 26.46820586 -49.2201644 27.43451709 -52.12182617 28.21875 C-52.55040389 22.00437313 -52.11742285 19.23885865 -48.12182617 14.21875 C-47.6706543 13.52910156 -47.21948242 12.83945313 -46.75463867 12.12890625 C-35.86057923 -3.72438921 -17.3135026 -7.99286984 0 0 Z " fill="#FBFBFB" transform="translate(434.121826171875,200.78125)"/>
<path d="M0 0 C0.66 0.33 1.32 0.66 2 1 C-7.31778426 12.2361516 -7.31778426 12.2361516 -11.25390625 16.36328125 C-18.18332093 23.68308549 -23.59660824 31.5208314 -29 40 C-29.66 40.99 -30.32 41.98 -31 43 C-31.14245897 45.76655324 -31.18769445 48.42653306 -31.125 51.1875 C-31.11146484 52.31188477 -31.11146484 52.31188477 -31.09765625 53.45898438 C-31.07412578 55.30612654 -31.03825561 57.15310412 -31 59 C-20.73526891 56.33092047 -14.91180412 51.6114141 -9 43 C-7.37063693 40.96545141 -5.68835546 38.98630054 -4 37 C-3.34 37.66 -2.68 38.32 -2 39 C-9.2095956 51.97727208 -21.51638638 63.76988825 -35 70 C-37.85459232 70.77069687 -40.02636983 71 -43 71 C-44.97933883 64.33783515 -44.94461735 57.13391558 -41.96386719 50.79736328 C-36.54579506 41.2529039 -29.54793644 33.01378101 -21.94921875 25.16015625 C-18.79322285 21.86037447 -16.02104668 18.31177039 -13.25 14.6875 C-9.18850552 9.38616558 -4.92023299 4.53958459 0 0 Z " fill="#0D0D0D" transform="translate(240,236)"/>
<path d="M0 0 C3.56208633 0.59368106 4.26057136 0.82502179 6.375 3.5625 C8.30157386 10.60323602 8.93115424 20.57793884 6.046875 27.375 C4.34272106 30.33874597 2.56209412 32.93887793 0.375 35.5625 C-0.12386719 36.16707031 -0.62273437 36.77164063 -1.13671875 37.39453125 C-2.4375 38.8125 -2.4375 38.8125 -4.625 40.5625 C-5.285 40.5625 -5.945 40.5625 -6.625 40.5625 C-6.99488111 36.05457398 -6.99488111 36.05457398 -5.3125 33.81640625 C-4.755625 33.25824219 -4.19875 32.70007813 -3.625 32.125 C0.23772059 27.34215022 -0.05972485 22.87987843 -0.21875 16.9296875 C-0.6240339 13.57050747 -1.43452312 10.72110397 -2.625 7.5625 C-5.595 7.0675 -5.595 7.0675 -8.625 6.5625 C-4.60449337 0.71449035 -4.60449337 0.71449035 0 0 Z " fill="#151515" transform="translate(235.625,126.4375)"/>
<path d="M0 0 C0.66 0.33 1.32 0.66 2 1 C-0.40703986 6.03945799 -3.76328816 8.1581888 -8.3125 11.0625 C-20.28028683 19.0017148 -30.64918951 28.58355076 -41.1328125 38.3515625 C-44.35256242 41.32566392 -47.63971603 44.186739 -51 47 C-49.59365534 43.81953813 -47.92151657 41.66463638 -45.47265625 39.20703125 C-44.76842529 38.49885254 -44.06419434 37.79067383 -43.33862305 37.06103516 C-42.58750244 36.31901855 -41.83638184 35.57700195 -41.0625 34.8125 C-39.90778198 33.66467041 -39.90778198 33.66467041 -38.72973633 32.49365234 C-33.88704652 27.72754083 -28.96735792 23.29742311 -23.61328125 19.11328125 C-20.56293729 16.64656065 -17.73014242 13.99956068 -14.875 11.3125 C-10.24533555 6.97476266 -5.44787261 3.26046921 0 0 Z " fill="#212121" transform="translate(409,276)"/>
<path d="M0 0 C0.66 0.33 1.32 0.66 2 1 C-3.17655487 7.24231616 -8.41479615 13.3714095 -13.9375 19.3125 C-17.90422089 23.63115552 -21.28201496 28.06095315 -24.4296875 33.00390625 C-26.14479723 35.18405817 -27.45826981 35.96581424 -30 37 C-30.99 37.495 -30.99 37.495 -32 38 C-30.40189706 34.15371834 -27.92037048 31.61817855 -25.0625 28.625 C-20.88034916 24.18237638 -17.02361446 19.59194667 -13.3125 14.75 C-9.2284019 9.43049856 -4.94071406 4.55848117 0 0 Z " fill="#181818" transform="translate(240,236)"/>
<path d="M0 0 C1.21816406 0.03480469 1.21816406 0.03480469 2.4609375 0.0703125 C3.68683594 0.09738281 3.68683594 0.09738281 4.9375 0.125 C5.87722656 0.15980469 5.87722656 0.15980469 6.8359375 0.1953125 C6.8359375 0.5253125 6.8359375 0.8553125 6.8359375 1.1953125 C5.5571875 1.3190625 4.2784375 1.4428125 2.9609375 1.5703125 C-0.51197186 1.88573649 -0.51197186 1.88573649 -3.1640625 4.1953125 C-1.8440625 4.8553125 -0.5240625 5.5153125 0.8359375 6.1953125 C-0.65099609 6.56269531 -0.65099609 6.56269531 -2.16796875 6.9375 C-6.47143988 8.16706318 -10.20369872 10.15525764 -14.1015625 12.3203125 C-15.12733398 12.87912109 -15.12733398 12.87912109 -16.17382812 13.44921875 C-17.84063489 14.35838607 -19.50284292 15.27597605 -21.1640625 16.1953125 C-22.60614191 13.31115367 -22.25801137 10.77809722 -22.2265625 7.5703125 C-22.21753906 6.38179687 -22.20851562 5.19328125 -22.19921875 3.96875 C-22.18761719 3.05351562 -22.17601562 2.13828125 -22.1640625 1.1953125 C-21.8340625 1.1953125 -21.5040625 1.1953125 -21.1640625 1.1953125 C-20.8340625 4.8253125 -20.5040625 8.4553125 -20.1640625 12.1953125 C-19.42800781 11.72480469 -18.69195312 11.25429687 -17.93359375 10.76953125 C-16.95777344 10.14691406 -15.98195312 9.52429688 -14.9765625 8.8828125 C-14.01363281 8.26792969 -13.05070313 7.65304688 -12.05859375 7.01953125 C-10.19885257 5.84746765 -8.32213886 4.70168823 -6.42578125 3.58984375 C-0.70710038 0.06381772 -0.70710038 0.06381772 0 0 Z " fill="#2B2B2B" transform="translate(264.1640625,133.8046875)"/>
<path d="M0 0 C0.99 0.33 1.98 0.66 3 1 C2.03900391 1.85271484 2.03900391 1.85271484 1.05859375 2.72265625 C-6.23930035 9.23746783 -13.12312079 15.80997309 -19.421875 23.30078125 C-21 25 -21 25 -24 27 C-24 24 -24 24 -22.71484375 22.45703125 C-22.12832031 21.91433594 -21.54179687 21.37164062 -20.9375 20.8125 C-18.3586778 18.35230362 -15.9770498 15.85610583 -13.6875 13.125 C-9.54083079 8.29668654 -4.79578898 4.16857312 0 0 Z " fill="#363636" transform="translate(376,370)"/>
<path d="M0 0 C0.66 0 1.32 0 2 0 C1.51747886 4.39630373 -1.39724702 7.18403876 -4.1875 10.375 C-4.89229492 11.20257813 -4.89229492 11.20257813 -5.61132812 12.046875 C-8.90805289 15.87881156 -12.39145481 19.46095272 -16 23 C-16.66 22.67 -17.32 22.34 -18 22 C-17.61070312 21.57332031 -17.22140625 21.14664062 -16.8203125 20.70703125 C-11.92909651 15.24104104 -7.47323182 9.49591091 -3.0390625 3.66015625 C-1 1 -1 1 0 0 Z " fill="#191919" transform="translate(396,347)"/>
<path d="M0 0 C0.99 0.33 1.98 0.66 3 1 C-7.49267185 10.58613586 -7.49267185 10.58613586 -12.1875 14.625 C-16.32736554 18.21631192 -20.17237666 22.08075802 -24 26 C-24 23 -24 23 -22.44287109 21.08642578 C-21.72695801 20.3798584 -21.01104492 19.67329102 -20.2734375 18.9453125 C-19.48839844 18.16542969 -18.70335937 17.38554687 -17.89453125 16.58203125 C-17.06308594 15.77121094 -16.23164063 14.96039063 -15.375 14.125 C-14.56675781 13.32191406 -13.75851562 12.51882813 -12.92578125 11.69140625 C-3.95966248 2.84191991 -3.95966248 2.84191991 0 0 Z " fill="#535353" transform="translate(383,297)"/>
<path d="M0 0 C0.66 0.66 1.32 1.32 2 2 C-1.97403413 8.50296493 -6.42562575 13.80762601 -12 19 C-12.99 18.34 -13.98 17.68 -15 17 C-14.360625 16.38125 -13.72125 15.7625 -13.0625 15.125 C-5.70683566 8.16985681 -5.70683566 8.16985681 0 0 Z " fill="#151515" transform="translate(236,273)"/>
<path d="M0 0 C0.99 0 1.98 0 3 0 C1.60827683 4.0374469 -0.29288685 6.89815847 -3 10.1875 C-3.70125 11.04730469 -4.4025 11.90710938 -5.125 12.79296875 C-7.59147026 15.69620979 -9.56553768 17.39725092 -13 19 C-10.92547439 14.21957142 -7.42941685 10.59840173 -4.09375 6.65625 C-2.36158438 4.45872645 -1.10602557 2.54866762 0 0 Z " fill="#1D1D1D" transform="translate(345,333)"/>
<path d="M0 0 C0.33 0 0.66 0 1 0 C1.36506852 3.70974045 1.39931347 5.44966413 -0.828125 8.51953125 C-1.62734375 9.27621094 -2.4265625 10.03289062 -3.25 10.8125 C-4.03890625 11.58207031 -4.8278125 12.35164063 -5.640625 13.14453125 C-7.88922464 14.91288362 -9.20975965 15.60962234 -12 16 C-12.33 15.34 -12.66 14.68 -13 14 C-12.154375 13.54625 -11.30875 13.0925 -10.4375 12.625 C-6.34996087 9.95836733 -4.0519889 6.0705879 -1.41796875 2.046875 C-0.95003906 1.37140625 -0.48210937 0.6959375 0 0 Z " fill="#161616" transform="translate(491,387)"/>
<path d="M0 0 C0.66 0.33 1.32 0.66 2 1 C0.5034537 3.01182422 -1.0047947 5.00599933 -2.5703125 6.96484375 C-6.54439874 11.91251066 -6.54439874 11.91251066 -8 18 C-8.33 18 -8.66 18 -9 18 C-10.05248995 15.15208601 -10.49136544 13.93784812 -10 11 C-7.35392823 7.30527966 -4.25639763 4.15955309 -1 1 C-0.67 0.67 -0.34 0.34 0 0 Z " fill="#2B2B2B" transform="translate(229,128)"/>
<path d="M0 0 C0.66 0.33 1.32 0.66 2 1 C-0.2942686 6.01871257 -4.04165632 8.78927352 -9 11 C-9.66 10.67 -10.32 10.34 -11 10 C-7.84778899 5.58690458 -4.44536093 2.99206986 0 0 Z " fill="#161616" transform="translate(409,276)"/>
<path d="M0 0 C0.66 0 1.32 0 2 0 C0.65515286 4.04161955 -1.0505162 6.38678154 -4.125 9.3125 C-4.84945313 10.00988281 -5.57390625 10.70726562 -6.3203125 11.42578125 C-6.87460937 11.94527344 -7.42890625 12.46476562 -8 13 C-8.66 12.34 -9.32 11.68 -10 11 C-9.44570313 10.45730469 -8.89140625 9.91460937 -8.3203125 9.35546875 C-7.23363281 8.28232422 -7.23363281 8.28232422 -6.125 7.1875 C-5.40570313 6.47980469 -4.68640625 5.77210938 -3.9453125 5.04296875 C-1.84641063 2.95600806 -1.84641063 2.95600806 0 0 Z " fill="#262626" transform="translate(361,384)"/>
<path d="M0 0 C0.33 0 0.66 0 1 0 C1.33 3.63 1.66 7.26 2 11 C2.33 10.67 2.66 10.34 3 10 C4.66617115 9.95936168 6.33388095 9.957279 8 10 C5.87219421 12.34058637 3.88437779 13.70700306 1 15 C-0.44207941 12.11584117 -0.09394887 9.58278472 -0.0625 6.375 C-0.05347656 5.18648437 -0.04445312 3.99796875 -0.03515625 2.7734375 C-0.02355469 1.85820312 -0.01195312 0.94296875 0 0 Z " fill="#3D3D3D" transform="translate(242,135)"/>
<path d="M0 0 C0.33 0.99 0.66 1.98 1 3 C-2.3 6.63 -5.6 10.26 -9 14 C-9.66 13.34 -10.32 12.68 -11 12 C-10.29875 11.505 -9.5975 11.01 -8.875 10.5 C-5.29763247 7.38924563 -2.72367352 3.85619756 0 0 Z " fill="#212121" transform="translate(169,234)"/>
<path d="M0 0 C0.99 0.33 1.98 0.66 3 1 C-2.01265823 7.40506329 -2.01265823 7.40506329 -6 9 C-6.99 9.66 -7.98 10.32 -9 11 C-7.59155282 7.78475695 -5.89655214 5.67816132 -3.375 3.25 C-2.74335938 2.63640625 -2.11171875 2.0228125 -1.4609375 1.390625 C-0.73777344 0.70226562 -0.73777344 0.70226562 0 0 Z " fill="#2B2B2B" transform="translate(392,204)"/>
<path d="M0 0 C0.66 0.33 1.32 0.66 2 1 C-0.06493357 5.02118642 -1.92213943 7.01334998 -6 9 C-6.66 9 -7.32 9 -8 9 C-6.4169423 4.7257442 -3.49431596 2.73468206 0 0 Z " fill="#191919" transform="translate(402,196)"/>
<path d="M0 0 C0.66 0.33 1.32 0.66 2 1 C-1.16548033 4.88901869 -4.40365256 8.50640535 -8 12 C-8 8 -8 8 -6.25 5.859375 C-5.5075 5.16328125 -4.765 4.4671875 -4 3.75 C-3.2575 3.04359375 -2.515 2.3371875 -1.75 1.609375 C-1.1725 1.07828125 -0.595 0.5471875 0 0 Z " fill="#303030" transform="translate(240,236)"/>
<path d="M0 0 C-1.5830577 4.2742558 -4.50568404 6.26531794 -8 9 C-8.33 8.01 -8.66 7.02 -9 6 C-7.8803014 4.99406757 -6.7540588 3.9954151 -5.625 3 C-4.68527344 2.1646875 -4.68527344 2.1646875 -3.7265625 1.3125 C-2 0 -2 0 0 0 Z " fill="#202020" transform="translate(266,161)"/>
<path d="M0 0 C0.66 0.33 1.32 0.66 2 1 C-1.90458716 7.4146789 -1.90458716 7.4146789 -6 9 C-6.99 9.66 -7.98 10.32 -9 11 C-7.59155282 7.78475695 -5.89655214 5.67816132 -3.375 3.25 C-2.74335938 2.63640625 -2.11171875 2.0228125 -1.4609375 1.390625 C-0.73777344 0.70226562 -0.73777344 0.70226562 0 0 Z " fill="#323232" transform="translate(34,187)"/>
<path d="M0 0 C0.66 0.33 1.32 0.66 2 1 C1.67 1.99 1.34 2.98 1 4 C-2.5625 5.6875 -2.5625 5.6875 -6 7 C-6.33 6.01 -6.66 5.02 -7 4 C-1.7265625 0.77734375 -1.7265625 0.77734375 0 0 Z " fill="#212121" transform="translate(243,174)"/>
<path d="M0 0 C-1.11666174 3.34998521 -1.74694925 3.79340222 -4.5625 5.6875 C-5.20316406 6.12449219 -5.84382813 6.56148438 -6.50390625 7.01171875 C-6.99761719 7.33785156 -7.49132812 7.66398437 -8 8 C-6.48291727 4.46014029 -4.24676932 0 0 0 Z " fill="#3C3C3C" transform="translate(376,305)"/>
</svg>
